<svg width="32" height="32" viewBox="0 0 32 32" fill="none" xmlns="http://www.w3.org/2000/svg">
<path d="M28 21.333H23.4951C23.0863 21.333 22.882 21.333 22.6982 21.4091C22.5144 21.4852 22.3699 21.6298 22.0809 21.9188L20.5858 23.4139C20.2968 23.7029 20.1522 23.8474 19.9685 23.9236C19.7847 23.9997 19.5803 23.9997 19.1716 23.9997H12.8284C12.4197 23.9997 12.2153 23.9997 12.0315 23.9236C11.8478 23.8474 11.7032 23.7029 11.4142 23.4139L9.91912 21.9188C9.63009 21.6298 9.48557 21.4852 9.3018 21.4091C9.11803 21.333 8.91366 21.333 8.50491 21.333H4" stroke="#2A41F8" stroke-width="2"/>
<path d="M28 16H23.4951C23.0863 16 22.882 16 22.6982 16.0761C22.5144 16.1522 22.3699 16.2968 22.0809 16.5858L20.5858 18.0809C20.2968 18.3699 20.1522 18.5144 19.9685 18.5905C19.7847 18.6667 19.5803 18.6667 19.1716 18.6667H12.8284C12.4197 18.6667 12.2153 18.6667 12.0315 18.5905C11.8478 18.5144 11.7032 18.3699 11.4142 18.0809L9.91912 16.5858C9.63009 16.2968 9.48557 16.1522 9.3018 16.0761C9.11803 16 8.91366 16 8.50491 16H4" stroke="#2A41F8" stroke-width="2"/>
<path d="M9.33333 10.6665L4.4 14.3665C4.14819 14.5554 4 14.8517 4 15.1665V25.9998C4 27.1044 4.89543 27.9998 6 27.9998H26C27.1046 27.9998 28 27.1044 28 25.9998V15.1665C28 14.8517 27.8518 14.5554 27.6 14.3665L22.6667 10.6665" stroke="#2A41F8" stroke-width="2" stroke-linecap="round"/>
<path d="M22.6666 17.3333V7.99607C22.6666 7.75148 22.6666 7.62919 22.639 7.5141C22.6145 7.41207 22.5741 7.31452 22.5192 7.22505C22.4574 7.12413 22.3709 7.03766 22.198 6.8647L19.8019 4.46863C19.6289 4.29568 19.5425 4.2092 19.4415 4.14736C19.3521 4.09253 19.2545 4.05213 19.1525 4.02763C19.0374 4 18.9151 4 18.6705 4H11.7333C10.8932 4 10.4731 4 10.1523 4.16349C9.87002 4.3073 9.64055 4.53677 9.49674 4.81901C9.33325 5.13988 9.33325 5.55992 9.33325 6.4V17.3333" stroke="#2A41F8" stroke-width="2"/>
<path d="M17.3333 4.00016L17.3333 7.73349C17.3333 8.29355 17.3333 8.57357 17.4422 8.78749C17.5381 8.97565 17.6911 9.12863 17.8793 9.2245C18.0932 9.3335 18.3732 9.3335 18.9333 9.3335L22.6666 9.3335" stroke="#2A41F8" stroke-width="2"/>
</svg>
