<svg width="38" height="38" viewBox="0 0 38 38" fill="none" xmlns="http://www.w3.org/2000/svg">
<path d="M24.5417 7.9165C26.7655 7.9165 27.8773 7.9165 28.6761 8.45018C29.0218 8.68122 29.3187 8.9781 29.5497 9.32386C30.0834 10.1226 30.0834 11.2344 30.0834 13.4582V28.4998C30.0834 31.4854 30.0834 32.9782 29.1559 33.9057C28.2284 34.8332 26.7356 34.8332 23.7501 34.8332H14.2501C11.2645 34.8332 9.77174 34.8332 8.84424 33.9057C7.91675 32.9782 7.91675 31.4854 7.91675 28.4998V13.4582C7.91675 11.2344 7.91675 10.1226 8.45043 9.32386C8.68146 8.9781 8.97834 8.68122 9.32411 8.45018C10.1228 7.9165 11.2347 7.9165 13.4584 7.9165" stroke="black" stroke-width="3"/>
<path d="M14.25 7.91667C14.25 6.16777 15.6678 4.75 17.4167 4.75H20.5833C22.3322 4.75 23.75 6.16777 23.75 7.91667C23.75 9.66557 22.3322 11.0833 20.5833 11.0833H17.4167C15.6678 11.0833 14.25 9.66557 14.25 7.91667Z" stroke="black" stroke-width="3"/>
<path d="M14.25 19L23.75 19" stroke="black" stroke-width="3" stroke-linecap="round"/>
<path d="M14.25 25.3335L20.5833 25.3335" stroke="black" stroke-width="3" stroke-linecap="round"/>
</svg>
