<svg width="73" height="73" viewBox="0 0 73 73" fill="none" xmlns="http://www.w3.org/2000/svg">
<circle cx="37.0001" cy="28.6668" r="6.33333" stroke="black" stroke-width="4" stroke-linecap="round"/>
<path d="M43.7361 28.625C44.2997 27.6488 45.228 26.9365 46.3168 26.6448C47.4055 26.3531 48.5656 26.5058 49.5417 27.0694C50.5179 27.633 51.2302 28.5613 51.5219 29.65C51.8137 30.7388 51.6609 31.8988 51.0974 32.875C50.5338 33.8512 49.6055 34.5635 48.5167 34.8552C47.428 35.1469 46.2679 34.9942 45.2917 34.4306C44.3156 33.867 43.6033 32.9387 43.3116 31.85C43.0198 30.7612 43.1726 29.6012 43.7361 28.625L43.7361 28.625Z" stroke="black" stroke-width="4"/>
<path d="M22.9026 28.625C23.4662 27.6488 24.3945 26.9365 25.4833 26.6448C26.572 26.3531 27.7321 26.5058 28.7083 27.0694C29.6844 27.633 30.3967 28.5613 30.6884 29.65C30.9802 30.7388 30.8274 31.8988 30.2639 32.875C29.7003 33.8512 28.772 34.5635 27.6832 34.8552C26.5945 35.1469 25.4344 34.9942 24.4583 34.4306C23.4821 33.867 22.7698 32.9387 22.4781 31.85C22.1863 30.7612 22.3391 29.6012 22.9026 28.625L22.9026 28.625Z" stroke="black" stroke-width="4"/>
<path d="M47.1701 49.4998L45.2095 49.8947L45.5328 51.4998H47.1701V49.4998ZM55.5248 48.3934L53.5866 48.8868V48.8868L55.5248 48.3934ZM42.7935 42.6468L41.5837 41.0541L39.2706 42.811L41.7372 44.3451L42.7935 42.6468ZM54.6173 47.4998H47.1701V51.4998H54.6173V47.4998ZM53.5866 48.8868C53.4952 48.5276 53.595 48.1491 53.8174 47.8829C54.0296 47.6289 54.3291 47.4998 54.6173 47.4998V51.4998C56.3683 51.4998 57.9705 49.8936 57.463 47.9L53.5866 48.8868ZM47.4168 43.1665C49.5423 43.1665 50.8867 44.0653 51.8187 45.1996C52.8057 46.4008 53.3322 47.8873 53.5866 48.8868L57.463 47.9C57.1403 46.6326 56.4256 44.5057 54.9092 42.6602C53.3379 40.7478 50.9168 39.1665 47.4168 39.1665V43.1665ZM44.0032 44.2394C44.8184 43.6202 45.9024 43.1665 47.4168 43.1665V39.1665C45.0146 39.1665 43.0837 39.9148 41.5837 41.0541L44.0032 44.2394ZM41.7372 44.3451C43.9308 45.7094 44.8447 48.0835 45.2095 49.8947L49.1308 49.105C48.6785 46.8594 47.422 43.1702 43.8497 40.9485L41.7372 44.3451Z" fill="black"/>
<path d="M31.2067 42.6468L32.2629 44.3451L34.7295 42.811L32.4164 41.0541L31.2067 42.6468ZM18.4753 48.3934L16.5372 47.8999V47.8999L18.4753 48.3934ZM26.8299 49.4998V51.4998H28.4673L28.7906 49.8947L26.8299 49.4998ZM26.5834 43.1665C28.0978 43.1665 29.1817 43.6202 29.9969 44.2394L32.4164 41.0541C30.9165 39.9148 28.9855 39.1665 26.5834 39.1665V43.1665ZM20.4135 48.8868C20.6679 47.8874 21.1945 46.4008 22.1815 45.1996C23.1135 44.0653 24.4579 43.1665 26.5834 43.1665V39.1665C23.0834 39.1665 20.6623 40.7478 19.0909 42.6602C17.5746 44.5057 16.8598 46.6326 16.5372 47.8999L20.4135 48.8868ZM19.3828 47.4998C19.671 47.4998 19.9705 47.6289 20.1827 47.8829C20.4051 48.1491 20.505 48.5276 20.4135 48.8868L16.5372 47.8999C16.0296 49.8935 17.6318 51.4998 19.3828 51.4998V47.4998ZM26.8299 47.4998H19.3828V51.4998H26.8299V47.4998ZM28.7906 49.8947C29.1553 48.0835 30.0693 45.7094 32.2629 44.3451L30.1504 40.9484C26.5781 43.1701 25.3216 46.8594 24.8693 49.105L28.7906 49.8947Z" fill="black"/>
<path d="M36.9999 41.1665C45.4268 41.1665 47.0365 47.9837 47.344 50.5881C47.4087 51.1366 46.9689 51.5832 46.4166 51.5832H27.5833C27.031 51.5832 26.5911 51.1366 26.6559 50.5881C26.9633 47.9837 28.573 41.1665 36.9999 41.1665Z" stroke="black" stroke-width="4" stroke-linecap="round"/>
<circle cx="36.5" cy="36.5" r="35" stroke="black" stroke-width="3"/>
</svg>
