<svg width="36" height="37" viewBox="0 0 36 37" fill="none" xmlns="http://www.w3.org/2000/svg">
<path d="M28.6667 2V2C30.8528 2 31.9459 2 32.7207 2.54254C33.0074 2.74327 33.2567 2.99261 33.4575 3.27928C34 4.05411 34 5.14718 34 7.33333L34 11.6667C34 12.1381 34 12.3738 33.8536 12.5202C33.7071 12.6667 33.4714 12.6667 33 12.6667L23.3333 12.6667M28.6667 2V2C26.4805 2 25.3874 2 24.6126 2.54255C24.3259 2.74327 24.0766 2.99261 23.8759 3.27928C23.3333 4.05411 23.3333 5.14718 23.3333 7.33334L23.3333 12.6667M28.6667 2L6 2C4.11438 2 3.17157 2 2.58579 2.58579C2 3.17158 2 4.11438 2 6L2 34L7.33333 32.2222L12.6667 34L18 32.2222L23.3333 34L23.3333 12.6667" stroke="white" stroke-width="3"/>
<path d="M9 9L16 9" stroke="white" stroke-width="3" stroke-linecap="round"/>
<path d="M11 16H9" stroke="white" stroke-width="3" stroke-linecap="round"/>
<path d="M9 23L15 23" stroke="white" stroke-width="3" stroke-linecap="round"/>
</svg>
