<svg width="73" height="73" viewBox="0 0 73 73" fill="none" xmlns="http://www.w3.org/2000/svg">
<path d="M47.6667 21V21C49.8528 21 50.9459 21 51.7207 21.5425C52.0074 21.7433 52.2567 21.9926 52.4575 22.2793C53 23.0541 53 24.1472 53 26.3333L53 30.6667C53 31.1381 53 31.3738 52.8536 31.5202C52.7071 31.6667 52.4714 31.6667 52 31.6667L42.3333 31.6667M47.6667 21V21C45.4805 21 44.3874 21 43.6126 21.5425C43.3259 21.7433 43.0766 21.9926 42.8759 22.2793C42.3333 23.0541 42.3333 24.1472 42.3333 26.3333L42.3333 31.6667M47.6667 21L25 21C23.1144 21 22.1716 21 21.5858 21.5858C21 22.1716 21 23.1144 21 25L21 53L26.3333 51.2222L31.6667 53L37 51.2222L42.3333 53L42.3333 31.6667" stroke="white" stroke-width="3"/>
<path d="M28 28L35 28" stroke="white" stroke-width="3" stroke-linecap="round"/>
<path d="M30 35H28" stroke="white" stroke-width="3" stroke-linecap="round"/>
<path d="M28 42L34 42" stroke="white" stroke-width="3" stroke-linecap="round"/>
<circle cx="36.5" cy="36.5" r="35" stroke="white" stroke-width="3"/>
</svg>
