<svg width="50" height="50" viewBox="0 0 50 50" fill="none" xmlns="http://www.w3.org/2000/svg">
<path d="M25 43.75C22.5377 43.75 20.0995 43.265 17.8247 42.3227C15.5498 41.3805 13.4828 39.9993 11.7417 38.2583C10.0006 36.5172 8.61953 34.4502 7.67726 32.1753C6.73498 29.9005 6.25 27.4623 6.25 25C6.25 22.5377 6.73498 20.0995 7.67726 17.8247C8.61954 15.5498 10.0007 13.4828 11.7417 11.7417C13.4828 10.0006 15.5498 8.61953 17.8247 7.67726C20.0995 6.73498 22.5377 6.25 25 6.25C27.4623 6.25 29.9005 6.73498 32.1753 7.67726C34.4502 8.61954 36.5172 10.0007 38.2583 11.7418C39.9994 13.4828 41.3805 15.5498 42.3227 17.8247C43.265 20.0995 43.75 22.5377 43.75 25C43.75 27.4623 43.265 29.9005 42.3227 32.1753C41.3805 34.4502 39.9993 36.5172 38.2582 38.2583C36.5171 39.9994 34.4502 41.3805 32.1753 42.3227C29.9005 43.265 27.4623 43.75 25 43.75L25 43.75Z" stroke="#FF0000" stroke-width="4" stroke-linecap="round"/>
<path d="M18.75 18.75L31.25 31.25" stroke="#FF0000" stroke-width="4" stroke-linecap="round"/>
<path d="M31.25 18.75L18.75 31.25" stroke="#FF0000" stroke-width="4" stroke-linecap="round"/>
</svg>
