<svg width="84" height="84" viewBox="0 0 84 84" fill="none" xmlns="http://www.w3.org/2000/svg">
<circle cx="42" cy="42" r="3.5" fill="#2A41F8"/>
<path d="M57 42C57 51.361 55.0975 59.7122 52.1383 65.6307C49.1043 71.6987 45.3754 74.5 42 74.5C38.6246 74.5 34.8957 71.6987 31.8617 65.6307C28.9025 59.7122 27 51.361 27 42C27 32.639 28.9025 24.2878 31.8617 18.3693C34.8957 12.3013 38.6246 9.5 42 9.5C45.3754 9.5 49.1043 12.3013 52.1383 18.3693C55.0975 24.2878 57 32.639 57 42Z" stroke="#2A41F8" stroke-width="5"/>
<path d="M49.4997 54.9901C41.3928 59.6706 33.2092 62.1986 26.604 62.5951C19.832 63.0015 15.5415 61.1729 13.8538 58.2497C12.1661 55.3265 12.7277 50.6965 16.4657 45.035C20.1116 39.513 26.3928 33.6898 34.4997 29.0093C42.6065 24.3288 50.7901 21.8008 57.3953 21.4043C64.1673 20.9978 68.4578 22.8265 70.1455 25.7497C71.8332 28.6729 71.2716 33.3028 67.5336 38.9644C63.8877 44.4864 57.6065 50.3095 49.4997 54.9901Z" stroke="#2A41F8" stroke-width="5"/>
<path d="M49.4997 29.0094C41.3928 24.3289 33.2092 21.8009 26.604 21.4045C19.832 20.998 15.5415 22.8266 13.8538 25.7498C12.1661 28.673 12.7277 33.303 16.4657 38.9645C20.1116 44.4865 26.3928 50.3097 34.4997 54.9902C42.6065 59.6707 50.7901 62.1987 57.3953 62.5952C64.1673 63.0017 68.4578 61.173 70.1455 58.2498C71.8332 55.3266 71.2716 50.6967 67.5336 45.0352C63.8877 39.5132 57.6065 33.69 49.4997 29.0094Z" stroke="#2A41F8" stroke-width="5"/>
</svg>
