<svg width="108" height="108" viewBox="0 0 108 108" fill="none" xmlns="http://www.w3.org/2000/svg">
<path d="M31.5 49.5C31.5 41.0147 31.5 36.7721 34.136 34.136C36.7721 31.5 41.0147 31.5 49.5 31.5H58.5C66.9853 31.5 71.2279 31.5 73.864 34.136C76.5 36.7721 76.5 41.0147 76.5 49.5V58.5C76.5 66.9853 76.5 71.2279 73.864 73.864C71.2279 76.5 66.9853 76.5 58.5 76.5H49.5C41.0147 76.5 36.7721 76.5 34.136 73.864C31.5 71.2279 31.5 66.9853 31.5 58.5V49.5Z" stroke="#2A41F8" stroke-width="5"/>
<rect x="45" y="45" width="18" height="18" rx="1" fill="#2A41F8"/>
<path d="M45 31.5V18" stroke="#2A41F8" stroke-width="5" stroke-linecap="round"/>
<path d="M63 31.5V18" stroke="#2A41F8" stroke-width="5" stroke-linecap="round"/>
<path d="M76.5 45L90 45" stroke="#2A41F8" stroke-width="5" stroke-linecap="round"/>
<path d="M76.5 63L90 63" stroke="#2A41F8" stroke-width="5" stroke-linecap="round"/>
<path d="M45 90V76.5" stroke="#2A41F8" stroke-width="5" stroke-linecap="round"/>
<path d="M63 90V76.5" stroke="#2A41F8" stroke-width="5" stroke-linecap="round"/>
<path d="M18 45L31.5 45" stroke="#2A41F8" stroke-width="5" stroke-linecap="round"/>
<path d="M18 63L31.5 63" stroke="#2A41F8" stroke-width="5" stroke-linecap="round"/>
</svg>
