<svg width="73" height="73" viewBox="0 0 73 73" fill="none" xmlns="http://www.w3.org/2000/svg">
<path d="M9.125 13.125C9.125 11.2394 9.125 10.2966 9.71079 9.71079C10.2966 9.125 11.2394 9.125 13.125 9.125H59.875C61.7606 9.125 62.7034 9.125 63.2892 9.71079C63.875 10.2966 63.875 11.2394 63.875 13.125V59.875C63.875 61.7606 63.875 62.7034 63.2892 63.2892C62.7034 63.875 61.7606 63.875 59.875 63.875H13.125C11.2394 63.875 10.2966 63.875 9.71079 63.2892C9.125 62.7034 9.125 61.7606 9.125 59.875V13.125Z" stroke="#2A41F8" stroke-width="7"/>
<path d="M9.125 21.2915H22.3333C23.3148 21.2915 23.8055 21.2915 24.2278 21.5026C24.6501 21.7138 24.9445 22.1064 25.5333 22.8915L32.2583 31.8582C32.8472 32.6433 33.1416 33.0359 33.5639 33.247C33.9862 33.4582 34.4769 33.4582 35.4583 33.4582H59.875C61.7606 33.4582 62.7034 33.4582 63.2892 32.8724C63.875 32.2866 63.875 31.3438 63.875 29.4582V24.3332" stroke="#2A41F8" stroke-width="7"/>
<path d="M21.292 48.6665H45.6253" stroke="#2A41F8" stroke-width="7" stroke-linecap="round"/>
</svg>
