<svg width="66" height="66" viewBox="0 0 66 66" fill="none" xmlns="http://www.w3.org/2000/svg">
<path d="M10.0833 44.25C7.6901 44.25 5.75 46.1901 5.75 48.5833C5.75 51.9891 8.51091 54.75 11.9167 54.75H54.0833C57.4891 54.75 60.25 51.9891 60.25 48.5833C60.25 46.1901 58.3099 44.25 55.9167 44.25H10.0833Z" stroke="#2A41F8" stroke-width="5"/>
<rect x="9.5" y="12.5" width="47" height="29" rx="2.5" stroke="#2A41F8" stroke-width="5"/>
<rect x="33" y="29" width="16" height="4" rx="2" fill="#2A41F8"/>
<path d="M17.3931 21.3251C18.1031 20.4789 19.3647 20.3685 20.2108 21.0785L24.424 24.6138C25.2701 25.3238 25.3805 26.5853 24.6705 27.4315V27.4315C23.9605 28.2776 22.699 28.388 21.8528 27.678L17.6397 24.1427C16.7935 23.4327 16.6831 22.1712 17.3931 21.3251V21.3251Z" fill="#2A41F8"/>
<rect x="16" y="30.1064" width="9.89755" height="4" rx="2" transform="rotate(-40 16 30.1064)" fill="#2A41F8"/>
</svg>
