<svg width="84" height="84" viewBox="0 0 84 84" fill="none" xmlns="http://www.w3.org/2000/svg">
<path d="M22.0846 45.4764C23.3666 45.9892 24.8215 45.3657 25.3343 44.0837C25.8471 42.8018 25.2235 41.3468 23.9416 40.834L22.0846 45.4764ZM60.0584 40.834C58.7765 41.3468 58.1529 42.8018 58.6657 44.0837C59.1785 45.3657 60.6334 45.9892 61.9154 45.4764L60.0584 40.834ZM76.0483 36.3693L75.1198 38.6905L76.0483 36.3693ZM76.0483 37.1307L75.1198 34.8095L76.0483 37.1307ZM7.95169 36.3693L8.88017 38.6905L7.95169 36.3693ZM7.95169 37.1307L7.02321 39.4519L7.95169 37.1307ZM40.3287 20.7259L7.02321 34.0481L8.88017 38.6905L42.1857 25.3683L40.3287 20.7259ZM76.9768 34.0481L43.6713 20.7259L41.8143 25.3683L75.1198 38.6905L76.9768 34.0481ZM7.02321 39.4519L22.0846 45.4764L23.9416 40.834L8.88017 34.8095L7.02321 39.4519ZM61.9154 45.4764L76.9768 39.4519L75.1198 34.8095L60.0584 40.834L61.9154 45.4764ZM75.1198 38.6905C73.3681 37.9898 73.3681 35.5102 75.1198 34.8095L76.9768 39.4519C79.4158 38.4763 79.4158 35.0237 76.9768 34.0481L75.1198 38.6905ZM7.02321 34.0481C4.58424 35.0237 4.58418 38.4763 7.02321 39.4519L8.88017 34.8095C10.6319 35.5102 10.6319 37.9898 8.88017 38.6905L7.02321 34.0481ZM42.1857 25.3683C42.0665 25.416 41.9335 25.416 41.8143 25.3683L43.6713 20.7259C42.5984 20.2968 41.4016 20.2968 40.3287 20.7259L42.1857 25.3683Z" fill="#2A41F8"/>
<path d="M48.25 47.25C48.25 48.6307 49.3693 49.75 50.75 49.75C52.1307 49.75 53.25 48.6307 53.25 47.25H48.25ZM48.25 26.25V47.25H53.25V26.25H48.25Z" fill="#2A41F8"/>
<path d="M22.75 57.75L21.8956 60.0995C20.9077 59.7402 20.25 58.8013 20.25 57.75H22.75ZM22.75 43.75H20.25C20.25 43.5456 20.2751 43.342 20.3246 43.1437L22.75 43.75ZM61.25 43.75L63.6754 43.1437C63.7249 43.342 63.75 43.5456 63.75 43.75H61.25ZM61.25 57.75H63.75C63.75 58.8013 63.0923 59.7402 62.1044 60.0995L61.25 57.75ZM42 64.75L42.8544 67.0995C42.3025 67.3002 41.6975 67.3002 41.1456 67.0995L42 64.75ZM20.25 57.75V43.75H25.25V57.75H20.25ZM22.75 43.75C20.3246 43.1437 20.3253 43.1408 20.3261 43.138C20.3263 43.137 20.327 43.1341 20.3275 43.1322C20.3286 43.1282 20.3296 43.1242 20.3307 43.12C20.3328 43.1117 20.3352 43.1029 20.3377 43.0936C20.3427 43.0751 20.3483 43.0549 20.3547 43.0329C20.3675 42.9889 20.3831 42.9381 20.4022 42.8808C20.4404 42.7663 20.4922 42.6262 20.5615 42.4644C20.7003 42.1405 20.9087 41.7316 21.2167 41.2695C21.8373 40.3386 22.8386 39.228 24.4257 38.1699C27.5919 36.0591 32.9409 34.25 42 34.25V39.25C33.5591 39.25 29.2831 40.9409 27.1993 42.3301C26.1614 43.022 25.6314 43.6614 25.377 44.043C25.2475 44.2372 25.1825 44.3751 25.1572 44.434C25.1445 44.4637 25.1416 44.4739 25.1456 44.462C25.1476 44.456 25.1513 44.4444 25.1564 44.4269C25.159 44.4182 25.1618 44.408 25.165 44.3962C25.1666 44.3904 25.1682 44.3841 25.17 44.3775C25.1708 44.3741 25.1717 44.3707 25.1726 44.3672C25.1731 44.3654 25.1738 44.3627 25.174 44.3618C25.1747 44.3591 25.1754 44.3563 22.75 43.75ZM42 34.25C51.0591 34.25 56.4081 36.0591 59.5742 38.1699C61.1614 39.228 62.1627 40.3386 62.7832 41.2695C63.0913 41.7316 63.2997 42.1405 63.4385 42.4644C63.5078 42.6262 63.5596 42.7663 63.5978 42.8808C63.6169 42.9381 63.6325 42.9889 63.6453 43.0329C63.6517 43.0549 63.6573 43.0751 63.6623 43.0936C63.6648 43.1029 63.6672 43.1117 63.6693 43.12C63.6704 43.1242 63.6715 43.1282 63.6725 43.1322C63.673 43.1341 63.6737 43.137 63.6739 43.138C63.6747 43.1408 63.6754 43.1437 61.25 43.75C58.8246 44.3563 58.8253 44.3591 58.826 44.3618C58.8262 44.3627 58.8269 44.3654 58.8274 44.3672C58.8283 44.3707 58.8292 44.3741 58.83 44.3775C58.8318 44.3841 58.8334 44.3904 58.835 44.3962C58.8382 44.408 58.841 44.4182 58.8436 44.4269C58.8487 44.4444 58.8524 44.456 58.8544 44.462C58.8584 44.4739 58.8555 44.4637 58.8428 44.434C58.8175 44.3751 58.7525 44.2372 58.623 44.043C58.3686 43.6614 57.8386 43.022 56.8008 42.3301C54.7169 40.9409 50.4409 39.25 42 39.25V34.25ZM63.75 43.75V57.75H58.75V43.75H63.75ZM62.1044 60.0995L42.8544 67.0995L41.1456 62.4005L60.3956 55.4005L62.1044 60.0995ZM41.1456 67.0995L21.8956 60.0995L23.6044 55.4005L42.8544 62.4005L41.1456 67.0995Z" fill="#2A41F8"/>
</svg>
