<svg width="74" height="71" viewBox="0 0 74 71" fill="none" xmlns="http://www.w3.org/2000/svg">
<path d="M18.2493 18.388L15.7974 17.9003L15.7974 17.9003L18.2493 18.388ZM21.8326 10.4796L19.8492 8.95766L19.8492 8.95766L21.8326 10.4796ZM45.4552 4.97155L44.3495 7.21373L44.3495 7.21373L45.4552 4.97155ZM52.1667 10.4796L54.1501 8.95766L54.1501 8.95766L52.1667 10.4796ZM55.75 18.388L53.298 18.8757L53.298 18.8757L55.75 18.388ZM17.9865 20.1213L15.5002 19.8602L17.9865 20.1213ZM17.5456 21.8608L15.8727 20.003L17.5456 21.8608ZM21.4126 48.5895L23.1804 50.3572L21.4126 48.5895ZM52.5867 48.5895L54.3544 46.8217L52.5867 48.5895ZM56.0128 20.1213L53.5265 20.3824L56.0128 20.1213ZM56.4537 21.8608L58.1267 20.003L56.4537 21.8608ZM58.1173 24.6176H66.9114V19.6176H58.1173V24.6176ZM66.9114 24.6176C68.016 24.6176 68.9114 25.5131 68.9114 26.6176H73.9114C73.9114 22.7517 70.7774 19.6176 66.9114 19.6176V24.6176ZM68.9114 26.6176V44.3824H73.9114V26.6176H68.9114ZM68.9114 44.3824C68.9114 45.4869 68.016 46.3824 66.9114 46.3824V51.3824C70.7774 51.3824 73.9114 48.2483 73.9114 44.3824H68.9114ZM66.9114 46.3824H54.2938V51.3824H66.9114V46.3824ZM54.7938 46.8824V30.9771H49.7938V46.8824H54.7938ZM54.7938 30.9771C54.7938 29.0441 53.2268 27.4771 51.2938 27.4771V32.4771C50.4653 32.4771 49.7938 31.8055 49.7938 30.9771H54.7938ZM51.2938 27.4771H22.7055V32.4771H51.2938V27.4771ZM22.7055 27.4771C20.7725 27.4771 19.2055 29.0441 19.2055 30.9771H24.2055C24.2055 31.8056 23.534 32.4771 22.7055 32.4771V27.4771ZM19.2055 30.9771V46.8824H24.2055V30.9771H19.2055ZM19.7055 46.3824H7.08789V51.3824H19.7055V46.3824ZM7.08789 46.3824C5.98332 46.3824 5.08789 45.4869 5.08789 44.3824H0.0878906C0.0878906 48.2483 3.22189 51.3824 7.08789 51.3824V46.3824ZM5.08789 44.3824V26.6176H0.0878906V44.3824H5.08789ZM5.08789 26.6176C5.08789 25.5131 5.98332 24.6176 7.08789 24.6176V19.6176C3.2219 19.6176 0.0878906 22.7517 0.0878906 26.6176H5.08789ZM7.08789 24.6176H15.882V19.6176H7.08789V24.6176ZM15.7974 17.9003C15.6681 18.5501 15.5691 19.2041 15.5002 19.8602L20.4729 20.3824C20.5258 19.878 20.602 19.3752 20.7013 18.8757L15.7974 17.9003ZM19.8492 8.95766C17.8306 11.5883 16.4443 14.6481 15.7974 17.9003L20.7013 18.8757C21.1986 16.3757 22.2643 14.0237 23.816 12.0015L19.8492 8.95766ZM27.4384 2.72937C24.4645 4.19595 21.8678 6.32699 19.8492 8.95766L23.816 12.0015C25.3677 9.97925 27.3638 8.3411 29.6499 7.21373L27.4384 2.72937ZM36.9997 0.5C33.6838 0.5 30.4123 1.26279 27.4384 2.72937L29.6499 7.21373C31.9359 6.08636 34.4507 5.5 36.9997 5.5V0.5ZM46.5609 2.72937C43.587 1.26279 40.3155 0.5 36.9997 0.5V5.5C39.5486 5.5 42.0634 6.08636 44.3495 7.21373L46.5609 2.72937ZM54.1501 8.95766C52.1315 6.32699 49.5348 4.19595 46.5609 2.72937L44.3495 7.21373C46.6355 8.3411 48.6316 9.97925 50.1833 12.0015L54.1501 8.95766ZM58.2019 17.9003C57.555 14.6481 56.1687 11.5883 54.1501 8.95766L50.1833 12.0015C51.735 14.0237 52.8007 16.3757 53.298 18.8757L58.2019 17.9003ZM58.4991 19.8602C58.4302 19.2041 58.3312 18.5501 58.2019 17.9002L53.298 18.8757C53.3974 19.3752 53.4735 19.878 53.5265 20.3824L58.4991 19.8602ZM15.882 24.6176C16.2777 24.6176 16.8011 24.622 17.2517 24.5674C17.7495 24.5072 18.5277 24.3406 19.2185 23.7185L15.8727 20.003C15.9629 19.9217 16.0596 19.8513 16.1593 19.7925C16.2579 19.7343 16.3494 19.6933 16.4263 19.6649C16.5721 19.6109 16.6657 19.6019 16.6511 19.6036C16.6362 19.6054 16.5765 19.611 16.4327 19.6143C16.2902 19.6175 16.1201 19.6176 15.882 19.6176V24.6176ZM15.5002 19.8602C15.4734 20.1151 15.4536 20.3028 15.4337 20.4606C15.4135 20.6201 15.3996 20.6961 15.3928 20.7267C15.3857 20.7592 15.3998 20.6778 15.4629 20.545C15.5345 20.3947 15.6624 20.1923 15.8727 20.003L19.2185 23.7185C19.9365 23.0719 20.1722 22.2715 20.2754 21.804C20.3746 21.3542 20.4273 20.8163 20.4729 20.3824L15.5002 19.8602ZM19.2055 46.8824C19.2055 47.1273 19.2054 47.2992 19.2018 47.4426C19.2 47.5107 19.1978 47.5603 19.1954 47.5966C19.193 47.6331 19.1911 47.6478 19.1912 47.6465C19.1914 47.6452 19.1949 47.6192 19.2056 47.5755C19.2164 47.5311 19.2359 47.4634 19.27 47.3806C19.3046 47.2964 19.3527 47.2005 19.4185 47.1001C19.4847 46.9991 19.5611 46.9055 19.6449 46.8217L23.1804 50.3572C23.8688 49.6689 24.0728 48.8623 24.1466 48.3127C24.2108 47.8351 24.2055 47.2831 24.2055 46.8824H19.2055ZM19.7055 51.3824C20.1063 51.3824 20.6583 51.3877 21.1359 51.3235C21.6855 51.2496 22.492 51.0456 23.1804 50.3572L19.6449 46.8217C19.7287 46.7379 19.8223 46.6615 19.9233 46.5953C20.0236 46.5295 20.1195 46.4815 20.2037 46.4468C20.2865 46.4127 20.3543 46.3932 20.3987 46.3824C20.4424 46.3717 20.4684 46.3682 20.4697 46.368C20.4709 46.3679 20.4563 46.3698 20.4198 46.3722C20.3835 46.3746 20.3338 46.3769 20.2658 46.3786C20.1224 46.3822 19.9505 46.3824 19.7055 46.3824V51.3824ZM54.2938 46.3824C54.0488 46.3824 53.8769 46.3822 53.7335 46.3786C53.6655 46.3769 53.6158 46.3746 53.5795 46.3722C53.543 46.3698 53.5284 46.3679 53.5296 46.368C53.5309 46.3682 53.557 46.3717 53.6007 46.3824C53.6451 46.3932 53.7128 46.4127 53.7956 46.4468C53.8798 46.4815 53.9757 46.5295 54.076 46.5953C54.177 46.6615 54.2706 46.7379 54.3544 46.8217L50.8189 50.3572C51.5073 51.0456 52.3138 51.2496 52.8634 51.3235C53.341 51.3877 53.893 51.3824 54.2938 51.3824V46.3824ZM49.7938 46.8824C49.7938 47.2831 49.7885 47.8351 49.8527 48.3127C49.9266 48.8623 50.1305 49.6689 50.8189 50.3572L54.3544 46.8217C54.4382 46.9055 54.5146 46.9991 54.5808 47.1001C54.6466 47.2005 54.6947 47.2964 54.7293 47.3806C54.7634 47.4634 54.7829 47.5311 54.7938 47.5755C54.8044 47.6192 54.8079 47.6452 54.8081 47.6465C54.8083 47.6478 54.8063 47.6331 54.8039 47.5966C54.8015 47.5603 54.7993 47.5107 54.7976 47.4426C54.7939 47.2992 54.7938 47.1274 54.7938 46.8824H49.7938ZM58.1173 19.6176C57.8792 19.6176 57.7091 19.6175 57.5666 19.6143C57.4228 19.611 57.3631 19.6054 57.3482 19.6036C57.3336 19.6019 57.4272 19.6109 57.573 19.6649C57.6499 19.6933 57.7414 19.7343 57.84 19.7925C57.9397 19.8513 58.0364 19.9217 58.1267 20.003L54.7808 23.7185C55.4716 24.3406 56.2498 24.5072 56.7476 24.5674C57.1983 24.622 57.7216 24.6176 58.1173 24.6176V19.6176ZM53.5265 20.3824C53.572 20.8163 53.6247 21.3542 53.7239 21.804C53.8271 22.2715 54.0628 23.0719 54.7808 23.7185L58.1267 20.003C58.3369 20.1923 58.4648 20.3947 58.5364 20.545C58.5995 20.6778 58.6137 20.7592 58.6065 20.7267C58.5997 20.6961 58.5858 20.6201 58.5656 20.4606C58.5457 20.3028 58.5259 20.1151 58.4991 19.8602L53.5265 20.3824Z" fill="#2A41F8"/>
<rect x="22" y="30" width="30" height="38" rx="2" stroke="#2A41F8" stroke-width="5"/>
<path d="M35 49H39" stroke="#2A41F8" stroke-width="5" stroke-linecap="round"/>
</svg>
