<svg width="96" height="96" viewBox="0 0 96 96" fill="none" xmlns="http://www.w3.org/2000/svg">
<path d="M58 84V61C58 60.4477 57.5523 60 57 60H39C38.4477 60 38 60.4477 38 61V84" stroke="#2A41F8" stroke-width="5" stroke-linecap="round" stroke-linejoin="round"/>
<path d="M20 44V80C20 81.8856 20 82.8284 20.5858 83.4142C21.1716 84 22.1144 84 24 84H72C73.8856 84 74.8284 84 75.4142 83.4142C76 82.8284 76 81.8856 76 80V44" stroke="#2A41F8" stroke-width="5"/>
<path d="M19.6213 13.5149C19.8032 12.7874 19.8941 12.4236 20.1654 12.2118C20.4366 12 20.8116 12 21.5616 12H74.4384C75.1884 12 75.5634 12 75.8346 12.2118C76.1059 12.4236 76.1968 12.7874 76.3787 13.5149L83.3787 41.5149C83.6647 42.6589 83.8077 43.2308 83.5074 43.6154C83.2072 44 82.6176 44 81.4384 44H71.3885C69.7702 44 68.961 44 68.4015 43.526C67.842 43.0521 67.709 42.2539 67.4429 40.6576L66.1973 33.1837C66.1222 32.7334 66.0847 32.5083 66 32.5083C65.9153 32.5083 65.8778 32.7334 65.8027 33.1837L64.5571 40.6576C64.291 42.2539 64.158 43.0521 63.5985 43.526C63.039 44 62.2298 44 60.6115 44H53.3885C51.7702 44 50.961 44 50.4015 43.526C49.842 43.0521 49.709 42.2539 49.4429 40.6576L48.1973 33.1837C48.1222 32.7334 48.0847 32.5083 48 32.5083C47.9153 32.5083 47.8778 32.7334 47.8027 33.1837L46.5571 40.6576C46.291 42.2539 46.158 43.0521 45.5985 43.526C45.039 44 44.2298 44 42.6115 44H35.3885C33.7702 44 32.961 44 32.4015 43.526C31.842 43.0521 31.709 42.2539 31.4429 40.6576L30.1973 33.1837C30.1222 32.7334 30.0847 32.5083 30 32.5083C29.9153 32.5083 29.8778 32.7334 29.8027 33.1837L28.5571 40.6576C28.291 42.2539 28.158 43.0521 27.5985 43.526C27.039 44 26.2298 44 24.6115 44H14.5616C13.3824 44 12.7928 44 12.4926 43.6154C12.1923 43.2308 12.3353 42.6589 12.6213 41.5149L19.6213 13.5149Z" stroke="#2A41F8" stroke-width="5"/>
</svg>
