<svg version="1.2" xmlns="http://www.w3.org/2000/svg" viewBox="0 0 720 720" width="720" height="720">
	<title>logo</title>
	<defs>
		<clipPath clipPathUnits="userSpaceOnUse" id="cp1">
			<path d="m377.34 39.2c0 0 291.27 290.6 302.66 303.8 11.39 13.2-0.5 35.72-0.5 35.72 0 0-279.63 280.4-300.26 299.32-20.64 18.93-37.24 0.96-37.24 0.96 0 0-281.76-277.44-300-300-18.24-22.56 0.09-37.35 0.09-37.35l301.91-302.65c16-14.12 33.34 0.2 33.34 0.2z"/>
		</clipPath>
	</defs>
	<style>
		.s0 { fill: #000000 } 
		.s1 { fill: #ffffff } 
	</style>
	<g id="logo hitam">
		<g clip-path="url(#cp1)">
			<path id="Shape 1" class="s0" d="m377.3 39.2c0 0 291.3 290.6 302.7 303.8 11.4 13.2-0.5 35.7-0.5 35.7 0 0-279.6 280.4-300.3 299.3-20.6 19-37.2 1-37.2 1 0 0-281.8-277.4-300-300-18.2-22.6 0.1-37.3 0.1-37.3l301.9-302.7c16-14.1 33.3 0.2 33.3 0.2z"/>
			<path id="Shape 8 copy" class="s1" d="m283 283c0 0 0.4-21.8-1.9-29-7.5 0-21.9 11.7-21.9 11.7l-6.2-16.7c0 0 24.5-12 35-14 12.1 10.8 8.8 49.7 8.8 49.7z"/>
			<path id="Shape 7 copy" class="s1" d="m398.5 367.3c0 0-52.4-27.8-68.5-48.3-22.8-25.9-73.6-31.3-73.6-31.3 0 0-9.1-44.7-18.4-44.7-22.8 18.4-29 58-29 58 0 0-42.2 25.6-47.2 88.9-5 63.2 21.1 136.4 21.1 136.4l-21.7-24.4c0 0-25.1-66.8-14-124.7 11.1-57.9 47.6-84.3 47.6-84.3 0 0 6.9-44.9 42.2-68.9 29.1 16.4 29 50 29 50 0 0 66 11.4 73 33 43 43.9 80.1 47.1 80.1 47.1z"/>
			<path id="Shape 6 copy" class="s1" d="m325 429c0 0-1.3 12.2 7.1 22.9 8.4 10.7 17.9 10.1 17.9 10.1l-1 14c0 0-18.4-2.1-28.1-13.1-9.7-11-9.9-30.9-9.9-30.9z"/>
			<path id="Shape 5 copy" class="s1" d="m179 551l-10-82c0 0 0.7-37.9 24.3-61.3 23.5-23.3 46.2-23.3 56.2-23.3 33.1-2.6 120.4 29.4 147.8-19.4-4 8.4-9.1 23.1-19.7 31.2-11.6 8.9-28.6 10.8-28.6 10.8 0 0-29.9 6.1-84.3-8.1-42.3-2.5-59.7 20.1-59.7 20.1 0 0-23.6 19.5-20.8 55 2.7 35.5 28.3 78.2 28.3 78.2z"/>
			<path id="Shape 4 copy" class="s1" d="m233 588l-28-21 8.4-29.3c0 0-5.8-47.4 24.6-75.7 28.2-37.8 108-55 108-55 0 0 15-6.9 29.4-18.4 14.3-11.5 22.6-23.6 22.6-23.6l20.8-11.2c0 0 3.3 28-27.8 49.2-33.2 20.1-80 31-80 31 0 0-41.6 17.1-62 38-35.3 37.3-14 88-14 88z"/>
			<path id="Shape 3 copy" class="s1" d="m501.1 162c0 0-40.1-5.8-63.1 0-29.7 6.3-51 29-51 29 0 0-20.9 21.8-28.2 50.8-7.4 29-5.8 77.2-5.8 77.2 0 0 2.1 54.1 7 68.8 4.9 14.6 5 75.2 5 75.2 0 0 1.5 32.3-5 57.5-6.5 25.2-19 34.5-19 34.5 0 0-8.9 13.3-27.1 19.5-18.2 6.1-40.9 4.5-40.9 4.5l-28 20-34-23 25-17c0 0 19.6 7.4 52 4.9 32.4-2.5 41-19.9 41-19.9 0 0 11.5-11.3 16.8-32.4 5.3-21.1 3.2-34.6 3.2-34.6 0 0-0.2-82.2-1.2-97.8-1-15.6-10.8-75.2-10.8-75.2 0 0 1.7-55 7.9-74.4 6.3-19.3 36-69.7 77.1-78.8 22.7-7.3 59.9-8.6 59.9-8.6z"/>
			<path id="Shape 9 copy" class="s0" d="m337 327l20 15c0 0 6.8 46.4 5 47.5-1.7 1.1-15 2.5-15 2.5z"/>
			<path id="Shape 2 copy" class="s1" d="m271.3 578.5c0 0 23.6 11 68 9.3 44.3-1.7 65.8-12.7 65.8-12.7 0 0 35-11.1 62.6-39.2 27.6-28 40.5-63.9 40.5-63.9 0 0 10.5-18.4 10.9-67 0.5-48.7-10.9-71-10.9-71 0 0-15.7-36.6-16.7-92.7-0.9-56.1 16.7-71.6 16.7-71.6l12.1 12.1c0 0-14.3 26.3-14.3 58.1 0 31.8 14.3 79.9 14.3 79.9 0 0 14.3 40.2 14.7 81 0.5 40.7-14 81.2-14 81.2 0 0-20.1 73.6-105 107-84.9 33.4-163.8 1.6-163.8 1.6z"/>
		</g>
	</g>
</svg>